<mxfile host="app.diagrams.net" modified="2023-04-15T00:20:37.761Z" agent="Mozilla/5.0 (Windows NT 10.0; Win64; x64) AppleWebKit/537.36 (KHTML, like Gecko) Chrome/112.0.0.0 Safari/537.36 Edg/112.0.1722.39" etag="x0EdirZ7kX1mgHnWdX0l" version="21.1.4" type="github">
  <diagram name="第 1 页" id="1WlzvSDSq4eE7MdozIPw">
    <mxGraphModel dx="993" dy="549" grid="1" gridSize="10" guides="1" tooltips="1" connect="1" arrows="1" fold="1" page="1" pageScale="1" pageWidth="827" pageHeight="1169" math="0" shadow="0">
      <root>
        <mxCell id="0" />
        <mxCell id="1" parent="0" />
        <mxCell id="fT7e2c4OPTrBTIQBwk6E-6" style="edgeStyle=orthogonalEdgeStyle;rounded=0;orthogonalLoop=1;jettySize=auto;html=1;exitX=0.5;exitY=1;exitDx=0;exitDy=0;" edge="1" parent="1" source="fT7e2c4OPTrBTIQBwk6E-1" target="fT7e2c4OPTrBTIQBwk6E-2">
          <mxGeometry relative="1" as="geometry" />
        </mxCell>
        <mxCell id="fT7e2c4OPTrBTIQBwk6E-1" value="提出问题" style="rounded=1;whiteSpace=wrap;html=1;" vertex="1" parent="1">
          <mxGeometry x="105" y="100" width="90" height="30" as="geometry" />
        </mxCell>
        <mxCell id="fT7e2c4OPTrBTIQBwk6E-7" style="edgeStyle=orthogonalEdgeStyle;rounded=0;orthogonalLoop=1;jettySize=auto;html=1;exitX=0.5;exitY=1;exitDx=0;exitDy=0;" edge="1" parent="1" source="fT7e2c4OPTrBTIQBwk6E-2" target="fT7e2c4OPTrBTIQBwk6E-3">
          <mxGeometry relative="1" as="geometry" />
        </mxCell>
        <mxCell id="fT7e2c4OPTrBTIQBwk6E-2" value="搜集数据" style="rounded=1;whiteSpace=wrap;html=1;" vertex="1" parent="1">
          <mxGeometry x="105" y="260" width="90" height="30" as="geometry" />
        </mxCell>
        <mxCell id="fT7e2c4OPTrBTIQBwk6E-8" style="edgeStyle=orthogonalEdgeStyle;rounded=0;orthogonalLoop=1;jettySize=auto;html=1;exitX=0.5;exitY=1;exitDx=0;exitDy=0;" edge="1" parent="1" source="fT7e2c4OPTrBTIQBwk6E-3" target="fT7e2c4OPTrBTIQBwk6E-4">
          <mxGeometry relative="1" as="geometry" />
        </mxCell>
        <mxCell id="fT7e2c4OPTrBTIQBwk6E-3" value="分析过程" style="rounded=1;whiteSpace=wrap;html=1;" vertex="1" parent="1">
          <mxGeometry x="105" y="425" width="90" height="30" as="geometry" />
        </mxCell>
        <mxCell id="fT7e2c4OPTrBTIQBwk6E-4" value="研究结论" style="rounded=1;whiteSpace=wrap;html=1;" vertex="1" parent="1">
          <mxGeometry x="105" y="612.5" width="90" height="30" as="geometry" />
        </mxCell>
        <mxCell id="fT7e2c4OPTrBTIQBwk6E-28" style="edgeStyle=orthogonalEdgeStyle;rounded=0;orthogonalLoop=1;jettySize=auto;html=1;exitX=0.5;exitY=1;exitDx=0;exitDy=0;entryX=0.5;entryY=0;entryDx=0;entryDy=0;shape=flexArrow;" edge="1" parent="1" source="fT7e2c4OPTrBTIQBwk6E-9" target="fT7e2c4OPTrBTIQBwk6E-19">
          <mxGeometry relative="1" as="geometry" />
        </mxCell>
        <mxCell id="fT7e2c4OPTrBTIQBwk6E-9" value="" style="rounded=0;whiteSpace=wrap;html=1;dashed=1;" vertex="1" parent="1">
          <mxGeometry x="220" y="45" width="370" height="140" as="geometry" />
        </mxCell>
        <mxCell id="fT7e2c4OPTrBTIQBwk6E-15" style="rounded=0;orthogonalLoop=1;jettySize=auto;html=1;exitX=0.5;exitY=1;exitDx=0;exitDy=0;edgeStyle=orthogonalEdgeStyle;" edge="1" parent="1" source="fT7e2c4OPTrBTIQBwk6E-10" target="fT7e2c4OPTrBTIQBwk6E-11">
          <mxGeometry relative="1" as="geometry">
            <Array as="points">
              <mxPoint x="414" y="90" />
              <mxPoint x="275" y="90" />
            </Array>
          </mxGeometry>
        </mxCell>
        <mxCell id="fT7e2c4OPTrBTIQBwk6E-16" style="edgeStyle=orthogonalEdgeStyle;rounded=0;orthogonalLoop=1;jettySize=auto;html=1;exitX=0.5;exitY=1;exitDx=0;exitDy=0;entryX=0.5;entryY=0;entryDx=0;entryDy=0;" edge="1" parent="1" source="fT7e2c4OPTrBTIQBwk6E-10" target="fT7e2c4OPTrBTIQBwk6E-12">
          <mxGeometry relative="1" as="geometry">
            <Array as="points">
              <mxPoint x="375" y="90" />
              <mxPoint x="475" y="90" />
            </Array>
          </mxGeometry>
        </mxCell>
        <mxCell id="fT7e2c4OPTrBTIQBwk6E-10" value="参阅文献" style="rounded=0;whiteSpace=wrap;html=1;" vertex="1" parent="1">
          <mxGeometry x="369" y="50" width="90" height="30" as="geometry" />
        </mxCell>
        <mxCell id="fT7e2c4OPTrBTIQBwk6E-17" style="edgeStyle=orthogonalEdgeStyle;rounded=0;orthogonalLoop=1;jettySize=auto;html=1;exitX=0.5;exitY=1;exitDx=0;exitDy=0;entryX=0.5;entryY=0;entryDx=0;entryDy=0;" edge="1" parent="1" source="fT7e2c4OPTrBTIQBwk6E-11" target="fT7e2c4OPTrBTIQBwk6E-13">
          <mxGeometry relative="1" as="geometry">
            <Array as="points">
              <mxPoint x="275" y="140" />
              <mxPoint x="414" y="140" />
            </Array>
          </mxGeometry>
        </mxCell>
        <mxCell id="fT7e2c4OPTrBTIQBwk6E-11" value="城市集聚不经济" style="rounded=0;whiteSpace=wrap;html=1;" vertex="1" parent="1">
          <mxGeometry x="230" y="100" width="90" height="30" as="geometry" />
        </mxCell>
        <mxCell id="fT7e2c4OPTrBTIQBwk6E-18" style="edgeStyle=orthogonalEdgeStyle;rounded=0;orthogonalLoop=1;jettySize=auto;html=1;exitX=0.5;exitY=1;exitDx=0;exitDy=0;entryX=0.5;entryY=0;entryDx=0;entryDy=0;" edge="1" parent="1" source="fT7e2c4OPTrBTIQBwk6E-12" target="fT7e2c4OPTrBTIQBwk6E-13">
          <mxGeometry relative="1" as="geometry">
            <Array as="points">
              <mxPoint x="475" y="140" />
              <mxPoint x="375" y="140" />
            </Array>
          </mxGeometry>
        </mxCell>
        <mxCell id="fT7e2c4OPTrBTIQBwk6E-12" value="信息技术发展" style="rounded=0;whiteSpace=wrap;html=1;" vertex="1" parent="1">
          <mxGeometry x="490" y="100" width="90" height="30" as="geometry" />
        </mxCell>
        <mxCell id="fT7e2c4OPTrBTIQBwk6E-13" value="城市群信息网络的时空演变及驱动因素分析" style="rounded=0;whiteSpace=wrap;html=1;" vertex="1" parent="1">
          <mxGeometry x="299" y="150" width="230" height="30" as="geometry" />
        </mxCell>
        <mxCell id="fT7e2c4OPTrBTIQBwk6E-38" style="edgeStyle=orthogonalEdgeStyle;rounded=0;orthogonalLoop=1;jettySize=auto;html=1;exitX=0.5;exitY=1;exitDx=0;exitDy=0;entryX=0.5;entryY=0;entryDx=0;entryDy=0;shape=flexArrow;" edge="1" parent="1" source="fT7e2c4OPTrBTIQBwk6E-19" target="fT7e2c4OPTrBTIQBwk6E-37">
          <mxGeometry relative="1" as="geometry" />
        </mxCell>
        <mxCell id="fT7e2c4OPTrBTIQBwk6E-19" value="" style="rounded=0;whiteSpace=wrap;html=1;dashed=1;" vertex="1" parent="1">
          <mxGeometry x="220" y="210" width="370" height="130" as="geometry" />
        </mxCell>
        <mxCell id="fT7e2c4OPTrBTIQBwk6E-23" style="edgeStyle=orthogonalEdgeStyle;rounded=0;orthogonalLoop=1;jettySize=auto;html=1;exitX=0.5;exitY=1;exitDx=0;exitDy=0;endArrow=none;endFill=0;" edge="1" parent="1" source="fT7e2c4OPTrBTIQBwk6E-20" target="fT7e2c4OPTrBTIQBwk6E-21">
          <mxGeometry relative="1" as="geometry">
            <Array as="points">
              <mxPoint x="291.5" y="255" />
            </Array>
          </mxGeometry>
        </mxCell>
        <mxCell id="fT7e2c4OPTrBTIQBwk6E-25" style="edgeStyle=orthogonalEdgeStyle;rounded=0;orthogonalLoop=1;jettySize=auto;html=1;exitX=0.5;exitY=1;exitDx=0;exitDy=0;entryX=0.427;entryY=0.033;entryDx=0;entryDy=0;endArrow=none;endFill=0;entryPerimeter=0;" edge="1" parent="1" source="fT7e2c4OPTrBTIQBwk6E-20" target="fT7e2c4OPTrBTIQBwk6E-22">
          <mxGeometry relative="1" as="geometry">
            <Array as="points">
              <mxPoint x="391.5" y="255" />
              <mxPoint x="483.5" y="255" />
            </Array>
          </mxGeometry>
        </mxCell>
        <mxCell id="fT7e2c4OPTrBTIQBwk6E-20" value="数据集" style="rounded=0;whiteSpace=wrap;html=1;" vertex="1" parent="1">
          <mxGeometry x="346.5" y="220" width="90" height="25" as="geometry" />
        </mxCell>
        <mxCell id="fT7e2c4OPTrBTIQBwk6E-30" style="edgeStyle=orthogonalEdgeStyle;rounded=0;orthogonalLoop=1;jettySize=auto;html=1;exitX=0.5;exitY=1;exitDx=0;exitDy=0;entryX=0.5;entryY=0;entryDx=0;entryDy=0;endArrow=none;endFill=0;" edge="1" parent="1" source="fT7e2c4OPTrBTIQBwk6E-21" target="fT7e2c4OPTrBTIQBwk6E-29">
          <mxGeometry relative="1" as="geometry" />
        </mxCell>
        <mxCell id="fT7e2c4OPTrBTIQBwk6E-21" value="信息网络数据" style="rounded=0;whiteSpace=wrap;html=1;" vertex="1" parent="1">
          <mxGeometry x="246.5" y="265" width="90" height="30" as="geometry" />
        </mxCell>
        <mxCell id="fT7e2c4OPTrBTIQBwk6E-22" value="自然和社会经济数据" style="rounded=0;whiteSpace=wrap;html=1;" vertex="1" parent="1">
          <mxGeometry x="436.5" y="265" width="110" height="30" as="geometry" />
        </mxCell>
        <mxCell id="fT7e2c4OPTrBTIQBwk6E-29" value="百度搜索指数" style="rounded=0;whiteSpace=wrap;html=1;" vertex="1" parent="1">
          <mxGeometry x="246.5" y="305" width="90" height="30" as="geometry" />
        </mxCell>
        <mxCell id="fT7e2c4OPTrBTIQBwk6E-31" value="人口" style="rounded=0;whiteSpace=wrap;html=1;" vertex="1" parent="1">
          <mxGeometry x="389.5" y="305" width="50" height="30" as="geometry" />
        </mxCell>
        <mxCell id="fT7e2c4OPTrBTIQBwk6E-32" value="建成区面积" style="rounded=0;whiteSpace=wrap;html=1;" vertex="1" parent="1">
          <mxGeometry x="449.5" y="305" width="70" height="30" as="geometry" />
        </mxCell>
        <mxCell id="fT7e2c4OPTrBTIQBwk6E-33" value="......" style="rounded=0;whiteSpace=wrap;html=1;" vertex="1" parent="1">
          <mxGeometry x="523.5" y="305" width="40" height="30" as="geometry" />
        </mxCell>
        <mxCell id="fT7e2c4OPTrBTIQBwk6E-36" value="" style="strokeWidth=2;html=1;shape=mxgraph.flowchart.annotation_2;align=left;labelPosition=right;pointerEvents=1;rotation=90;" vertex="1" parent="1">
          <mxGeometry x="479.5" y="238.13" width="10" height="123.75" as="geometry" />
        </mxCell>
        <mxCell id="fT7e2c4OPTrBTIQBwk6E-37" value="" style="rounded=0;whiteSpace=wrap;html=1;dashed=1;" vertex="1" parent="1">
          <mxGeometry x="220" y="370" width="370" height="170" as="geometry" />
        </mxCell>
        <mxCell id="fT7e2c4OPTrBTIQBwk6E-39" value="针对城市群分别分析" style="rounded=0;whiteSpace=wrap;html=1;" vertex="1" parent="1">
          <mxGeometry x="347" y="380" width="116" height="30" as="geometry" />
        </mxCell>
        <mxCell id="fT7e2c4OPTrBTIQBwk6E-40" value="社会网络分析" style="rounded=0;whiteSpace=wrap;html=1;" vertex="1" parent="1">
          <mxGeometry x="220.5" y="500" width="79.5" height="30" as="geometry" />
        </mxCell>
        <mxCell id="fT7e2c4OPTrBTIQBwk6E-41" value="长三角城市群" style="rounded=0;whiteSpace=wrap;html=1;" vertex="1" parent="1">
          <mxGeometry x="220" y="425" width="80" height="30" as="geometry" />
        </mxCell>
        <mxCell id="fT7e2c4OPTrBTIQBwk6E-42" value="京津冀城市群" style="rounded=0;whiteSpace=wrap;html=1;" vertex="1" parent="1">
          <mxGeometry x="320" y="425" width="80" height="30" as="geometry" />
        </mxCell>
        <mxCell id="fT7e2c4OPTrBTIQBwk6E-43" value="粤港澳城市群" style="rounded=0;whiteSpace=wrap;html=1;" vertex="1" parent="1">
          <mxGeometry x="420" y="425" width="80" height="30" as="geometry" />
        </mxCell>
        <mxCell id="fT7e2c4OPTrBTIQBwk6E-44" value="成渝城市群" style="rounded=0;whiteSpace=wrap;html=1;" vertex="1" parent="1">
          <mxGeometry x="510" y="425" width="70" height="30" as="geometry" />
        </mxCell>
        <mxCell id="fT7e2c4OPTrBTIQBwk6E-45" value="" style="strokeWidth=2;html=1;shape=mxgraph.flowchart.annotation_2;align=left;labelPosition=right;pointerEvents=1;rotation=90;" vertex="1" parent="1">
          <mxGeometry x="393.75" y="268.75" width="20" height="292.5" as="geometry" />
        </mxCell>
        <mxCell id="fT7e2c4OPTrBTIQBwk6E-46" value="" style="strokeWidth=2;html=1;shape=mxgraph.flowchart.annotation_2;align=left;labelPosition=right;pointerEvents=1;rotation=-90;" vertex="1" parent="1">
          <mxGeometry x="394" y="320" width="20" height="292.5" as="geometry" />
        </mxCell>
        <mxCell id="fT7e2c4OPTrBTIQBwk6E-47" value="" style="strokeWidth=2;html=1;shape=mxgraph.flowchart.annotation_2;align=left;labelPosition=right;pointerEvents=1;rotation=90;" vertex="1" parent="1">
          <mxGeometry x="391" y="343" width="26" height="292.5" as="geometry" />
        </mxCell>
        <mxCell id="fT7e2c4OPTrBTIQBwk6E-48" value="位序规模分布" style="rounded=0;whiteSpace=wrap;html=1;" vertex="1" parent="1">
          <mxGeometry x="360" y="500" width="79.5" height="30" as="geometry" />
        </mxCell>
        <mxCell id="fT7e2c4OPTrBTIQBwk6E-49" value="地理探测器" style="rounded=0;whiteSpace=wrap;html=1;" vertex="1" parent="1">
          <mxGeometry x="505.25" y="500" width="79.5" height="30" as="geometry" />
        </mxCell>
        <mxCell id="fT7e2c4OPTrBTIQBwk6E-50" value="" style="rounded=0;whiteSpace=wrap;html=1;dashed=1;" vertex="1" parent="1">
          <mxGeometry x="218.75" y="561.25" width="370" height="138.75" as="geometry" />
        </mxCell>
        <mxCell id="fT7e2c4OPTrBTIQBwk6E-54" style="edgeStyle=orthogonalEdgeStyle;rounded=0;orthogonalLoop=1;jettySize=auto;html=1;exitX=0.5;exitY=1;exitDx=0;exitDy=0;entryX=0.5;entryY=0;entryDx=0;entryDy=0;" edge="1" parent="1" source="fT7e2c4OPTrBTIQBwk6E-51" target="fT7e2c4OPTrBTIQBwk6E-52">
          <mxGeometry relative="1" as="geometry" />
        </mxCell>
        <mxCell id="fT7e2c4OPTrBTIQBwk6E-51" value="城市群信息网络的时空演变" style="rounded=0;whiteSpace=wrap;html=1;" vertex="1" parent="1">
          <mxGeometry x="298" y="570" width="222" height="30" as="geometry" />
        </mxCell>
        <mxCell id="fT7e2c4OPTrBTIQBwk6E-55" style="edgeStyle=orthogonalEdgeStyle;rounded=0;orthogonalLoop=1;jettySize=auto;html=1;exitX=0.5;exitY=1;exitDx=0;exitDy=0;entryX=0.5;entryY=0;entryDx=0;entryDy=0;" edge="1" parent="1" source="fT7e2c4OPTrBTIQBwk6E-52" target="fT7e2c4OPTrBTIQBwk6E-53">
          <mxGeometry relative="1" as="geometry" />
        </mxCell>
        <mxCell id="fT7e2c4OPTrBTIQBwk6E-52" value="城市群信息网络的驱动因素" style="rounded=0;whiteSpace=wrap;html=1;" vertex="1" parent="1">
          <mxGeometry x="297.5" y="612.5" width="222" height="30" as="geometry" />
        </mxCell>
        <mxCell id="fT7e2c4OPTrBTIQBwk6E-53" value="城市信息化政策建议的提出" style="rounded=0;whiteSpace=wrap;html=1;" vertex="1" parent="1">
          <mxGeometry x="297.5" y="660" width="222" height="30" as="geometry" />
        </mxCell>
      </root>
    </mxGraphModel>
  </diagram>
</mxfile>
